# AST/ASF file generated using VICON BodyLanguage
# -----------------------------------------------
:version 1.10
:name VICON
:units
  mass 1.0
  length 0.45
  angle deg
:documentation
   .ast/.asf automatically generated from VICON data using
   VICON BodyBuilder and BodyLanguage model FoxedUp or BRILLIANT.MOD
:root
   order TX TY TZ RX RY RZ
   axis XYZ
   position 0 0 0  
   orientation 0 0 0 
:bonedata
  begin
     id 1 
     name lhipjoint
     direction 0.576517 -0.752066 0.319413 
     length 2.45433 
     axis 0 0 0  XYZ
  end
  begin
     id 2 
     name lfemur
     direction 0.34202 -0.939693 0  
     length 7.54459  
     axis 0 0 20  XYZ
    dof rx ry rz
    limits (-160.0 20.0)
           (-70.0 70.0)
           (-60.0 70.0)
  end
  begin
     id 3 
     name ltibia
     direction 0.34202 -0.939693 0   
     length 7.73986   
     axis 0 0 20   XYZ
    dof rx
    limits (-10.0 170.0)
  end
  begin
     id 4 
     name lfoot
     direction 0.090693 -0.249177 0.964202   
     length 2.28437   
     axis -90 7.62852e-016 20   XYZ
    dof rx rz
    limits (-45.0 90.0)
           (-70.0 20.0)
  end
  begin
     id 5 
     name ltoes
     direction 1.5356e-011 -4.21928e-011 1   
     length 1.14243   
     axis -90 7.62852e-016 20   XYZ
    dof rx
    limits (-90.0 20.0)
  end
  begin
     id 6 
     name rhipjoint
     direction -0.573937 -0.753736 0.320122   
     length 2.44889  
     axis 0 0 0  XYZ 
  end
  begin
     id 7 
     name rfemur
     direction -0.34202 -0.939693 0   
     length 7.50166   
     axis 0 0 -20   XYZ
    dof rx ry rz
    limits (-160.0 20.0)
           (-70.0 70.0)
           (-70.0 60.0)
  end
  begin
     id 8 
     name rtibia
     direction -0.34202 -0.939693 0   
     length 7.54266   
     axis 0 0 -20   XYZ
    dof rx
    limits (-10.0 170.0)
 end
 begin
     id 9 
     name rfoot
     direction -0.114017 -0.31326 0.942798   
     length 2.34212  
     axis -90 -7.62852e-016 -20   XYZ
    dof rx rz
    limits (-45.0 90.0)
           (-20.0 70.0)
  end
  begin
     id 10 
     name rtoes
     direction -1.53557e-011 -4.21867e-011 1   
     length 1.16246   
     axis -90 -7.62852e-016 -20   XYZ
    dof rx
    limits (-90.0 20.0)
  end
  begin
     id 11 
     name lowerback
     direction -0.0228371 0.999155 -0.034167   
     length 2.0537   
     axis 0 0 0   XYZ
    dof rx ry rz
    limits (-20.0 45.0)
           (-30.0 30.0)
           (-30.0 30.0)
  end
  begin
     id 12 
     name upperback
     direction 0.0198981 0.999794 0.00389455   
     length 2.05302   
     axis 0 0 0   XYZ
    dof rx ry rz
    limits (-20.0 45.0)
           (-30.0 30.0)
           (-30.0 30.0)
  end
  begin
     id 13 
     name thorax
     direction 0.0304566 0.99935 0.0192987   
     length 2.05315   
     axis 0 0 0   XYZ
    dof rx ry rz
    limits (-20.0 45.0)
           (-30.0 30.0)
           (-30.0 30.0)
  end
  begin
     id 14 
     name lowerneck
     direction -0.0196762 0.99417 0.106017   
     length 1.82056   
     axis 0 0 0   XYZ
    dof rx ry rz
    limits (-20.0 45.0)
           (-30.0 30.0)
           (-30.0 30.0)
  end
  begin
     id 15 
     name upperneck
     direction 0.00517787 0.9802 -0.197944   
     length 1.83835   
     axis 0 0 0   XYZ
    dof rx ry rz
    limits (-20.0 45.0)
           (-30.0 30.0)
           (-30.0 30.0)
  end
  begin
     id 16
     name head
     direction 0.00211419 0.996945 -0.078081  
     length 1.85629  
     axis 0 0 0   XYZ
    dof rx ry rz
    limits (-20.0 45.0)
           (-30.0 30.0)
           (-30.0 30.0)
  end
  begin
     id 17 
     name lclavicle
     direction 0.930001 0.365811 -0.0357824  
     length 3.81961  
     axis 0 0 0   XYZ
    dof ry rz
    limits (-20.0 10.0)
           (0.0 20.0)
  end
  begin
     id 18 
     name lhumerus
     direction 1 -4.48968e-011 -3.06644e-027   
     length 5.14507   
     axis 180 -30 -90   XYZ
    dof rx ry rz
    limits (-60.0 90.0)
           (-90.0 90.0)
           (-90.0 90.0)
  end
  begin
     id 19
     name lradius
     direction 1 -4.48965e-011 9.06925e-028   
     length 3.50646   
     axis 180 -30 -90   XYZ
    dof rx
    limits (-10.0 170.0)
  end
  begin
     id 20
     name lwrist
     direction 1 -4.48957e-011 1.03922e-027   
     length 1.75323   
     axis -2.56395e-016 90 90   XYZ
    dof ry
    limits (-180.0 0.0)
 end
  begin
     id 21 
     name lhand
     direction 1 -4.48967e-011 2.08017e-027   
     length 0.629969   
     axis -1.32723e-015 90 90   XYZ
    dof rx rz
    limits (-90.0 90.0)
           (-45.0 45.0)
  end
  begin
     id 22 
     name lfingers
     direction 1 -4.49089e-011 4.20095e-027   
     length 0.507897   
     axis -2.6545e-015 90 90   XYZ
    dof rx
    limits (0.0 90.0)
  end
  begin
     id 23
     name lthumb
     direction 0.707107 -6.35001e-011 0.707107   
     length 0.729241   
     axis -90 45 5.05613e-014   XYZ
    dof rx rz
    limits (-45.0 45.0)
           (-45.0 45.0)
  end
  begin
     id 24 
     name rclavicle
     direction -0.881882 0.464123 -0.0829113   
     length 3.47515  
     axis 0 0 0   XYZ 
    dof ry rz
    limits (-10.0 20.0)
           (-20.0 0.0)
  end
  begin
     id 25 
     name rhumerus
     direction -1 -4.48961e-011 -1.55672e-027  
     length 5.232   
     axis 180 30 90   XYZ
    dof rx ry rz
    limits (-90.0 60.0)
           (-90.0 90.0)
           (-90.0 90.0)
  end
  begin
     id 26 
     name rradius
     direction -1 -4.48963e-011 6.18178e-029   
     length 3.65641   
     axis 180 30 90   XYZ
    dof rx
    limits (-10.0 170.0)
  end
  begin
     id 27 
     name rwrist
     direction -1 -4.48982e-011 1.04136e-027   
     length 1.8282   
     axis -2.56395e-016 -90 -90   XYZ
    dof ry
    limits (-180.0 0.0)
  end
  begin
     id 28
     name rhand
     direction -1 -4.48929e-011 2.07378e-027   
     length 0.656807   
     axis -1.32723e-015 -90 -90   XYZ
    dof rx rz
    limits (-90.0 90.0)
           (-45.0 45.0)
  end
  begin
     id 29
     name rfingers
     direction -1 -4.489e-011 4.13816e-027   
     length 0.529535   
     axis -2.6545e-015 -90 -90   XYZ
    dof rx
    limits (0.0 90.0)
  end
  begin
     id 30
     name rthumb
     direction -0.707107 -6.34843e-011 0.707107   
     length 0.760309   
     axis -90 -45 -5.05613e-014   XYZ
    dof rx rz
    limits (-45.0 45.0)
           (-45.0 45.0)
  end
:hierarchy
  begin
    root lhipjoint rhipjoint lowerback
    lhipjoint lfemur
    lfemur ltibia
    ltibia lfoot
    lfoot ltoes
    rhipjoint rfemur
    rfemur rtibia
    rtibia rfoot
    rfoot rtoes
    lowerback upperback
    upperback thorax
    thorax lowerneck lclavicle rclavicle
    lowerneck upperneck
    upperneck head
    lclavicle lhumerus
    lhumerus lradius
    lradius lwrist
    lwrist lhand lthumb
    lhand lfingers
    rclavicle rhumerus
    rhumerus rradius
    rradius rwrist
    rwrist rhand rthumb
    rhand rfingers
  end

#!OML:ASF H:\ManfredETheater\Project 1\Capture day 1\Session 1\subject.ASF
:FULLY-SPECIFIED
:DEGREES
32
root 1.45767 16.0739 -3.81912 -6.08222 4.02236 -0.0795166
lowerback 4.40891 -0.624461 -2.95283
upperback 0.312458 -0.942154 1.63091
thorax -2.07575 -0.437259 3.39646
lowerneck -19.1941 -1.8836 -2.47096
upperneck 23.1963 -1.99281 0.423344
head 10.6696 -1.08004 0.272205
rclavicle 1.75427e-014 1.19271e-015
rhumerus 25.8991 3.7657 -43.4099
rradius 69.3793
rwrist 9.48373
rhand 6.36916 -21.6021
rfingers 7.12502
rthumb 31.675 -48.8727
lclavicle 1.75427e-014 1.19271e-015
lhumerus 25.5471 -1.5301 60.1997
lradius 74.7029
lwrist -23.5117
lhand 14.3385 16.1257
lfingers 7.12502
lthumb 39.2286 41.5799
rfemur -15.5816 -15.8092 7.93811
rtibia 63.2138
rfoot -33.1776 0.906706
rtoes -12.5035
lfemur -17.94 5.45728 -10.6869
ltibia 63.7967
lfoot -34.4887 -3.55542
ltoes -12.7533
33
root 1.4566 16.0741 -3.81821 -6.08304 3.99763 -0.121066
lowerback 4.39854 -0.619297 -2.92296
upperback 0.316834 -0.933104 1.64962
thorax -2.06632 -0.433183 3.39821
lowerneck -19.1731 -1.8872 -2.49196
upperneck 23.1965 -1.99574 0.437591
head 10.6661 -1.08155 0.280563
rclavicle -6.93262e-015 9.14409e-015
rhumerus 25.8936 3.78464 -43.3911
rradius 69.3883
rwrist 9.44793
rhand 6.38795 -21.6173
rfingers 7.12502
rthumb 31.6929 -48.8843
lclavicle -6.93262e-015 9.14409e-015
lhumerus 25.5421 -1.52684 60.211
lradius 74.7005
lwrist -23.5169
lhand 14.3262 16.1173
lfingers 7.12502
lthumb 39.217 41.5748
rfemur -15.5861 -15.7937 7.99591
rtibia 63.2051
rfoot -33.1651 0.905455
rtoes -12.4424
lfemur -17.9349 5.48523 -10.628
ltibia 63.7933
lfoot -34.4941 -3.56527
ltoes -12.7634
34
root 1.45623 16.0741 -3.81635 -6.09108 4.00702 -0.110028
lowerback 4.38819 -0.620927 -2.93655
upperback 0.324728 -0.935821 1.64282
thorax -2.05206 -0.434836 3.39873
lowerneck -19.165 -1.88247 -2.46961
upperneck 23.2067 -1.99149 0.419404
head 10.6678 -1.07993 0.270973
rclavicle 1.05853e-014 -4.77083e-015
rhumerus 25.8736 3.78348 -43.4057
rradius 69.392
rwrist 9.47262
rhand 6.43669 -21.5799
rfingers 7.12502
rthumb 31.7393 -48.8378
lclavicle 1.05853e-014 -4.77083e-015
lhumerus 25.5424 -1.53513 60.203
lradius 74.7054
lwrist -23.4812
lhand 14.3513 16.148
lfingers 7.12502
lthumb 39.2407 41.5987
rfemur -15.5648 -15.8175 7.97448
rtibia 63.2024
rfoot -33.1675 0.914109
rtoes -12.4841
lfemur -17.9149 5.47049 -10.6388
ltibia 63.7922
lfoot -34.5011 -3.54112
ltoes -12.8236
35
root 1.45505 16.074 -3.81583 -6.09366 3.98784 -0.144554
lowerback 4.38615 -0.615169 -2.92098
upperback 0.328671 -0.926918 1.66085
thorax -2.04752 -0.430605 3.408
lowerneck -19.1437 -1.88191 -2.46785
upperneck 23.1978 -1.98891 0.408555
head 10.6603 -1.07998 0.267372
rclavicle -1.26974e-014 2.34566e-014
rhumerus 25.867 3.79457 -43.3897
rradius 69.3951
rwrist 9.45056
rhand 6.43225 -21.6049
rfingers 7.12502
rthumb 31.7351 -48.8636
lclavicle -1.26974e-014 2.34566e-014
lhumerus 25.5398 -1.54494 60.2111
lradius 74.6993
lwrist -23.4914
lhand 14.3022 16.1432
lfingers 7.12502
lthumb 39.1944 41.6073
rfemur -15.5664 -15.8019 8.02478
rtibia 63.1986
rfoot -33.1747 0.915208
rtoes -12.4678
lfemur -17.9162 5.49495 -10.5878
ltibia 63.7961
lfoot -34.5033 -3.57978
ltoes -12.7277
36
root 1.45436 16.074 -3.81505 -6.08722 3.98896 -0.158355
lowerback 4.38514 -0.612896 -2.90701
upperback 0.325374 -0.923207 1.65969
thorax -2.05089 -0.428765 3.39872
lowerneck -19.137 -1.88077 -2.47284
upperneck 23.208 -1.99113 0.427763
head 10.663 -1.07908 0.274799
rclavicle -1.36664e-015 -8.74653e-015
rhumerus 25.8494 3.80416 -43.3868
rradius 69.3904
rwrist 9.44878
rhand 6.42069 -21.5889
rfingers 7.12502
rthumb 31.7241 -48.8498
lclavicle -1.36664e-015 -8.74653e-015
lhumerus 25.5308 -1.56338 60.2005
lradius 74.7091
lwrist -23.4757
lhand 14.3501 16.1251
lfingers 7.12502
lthumb 39.2395 41.5761
rfemur -15.5676 -15.8147 8.04202
rtibia 63.198
rfoot -33.1662 0.910075
rtoes -12.4976
lfemur -17.9246 5.48759 -10.5707
ltibia 63.7987
lfoot -34.4873 -3.59184
ltoes -12.7281
37
root 1.45373 16.0749 -3.81296 -6.07751 3.98887 -0.139785
lowerback 4.35633 -0.60903 -2.93202
upperback 0.32202 -0.918724 1.65358
thorax -2.03827 -0.426523 3.4058
lowerneck -19.1226 -1.88269 -2.44836
upperneck 23.2311 -1.99382 0.397126
head 10.6682 -1.08206 0.259369
rclavicle 3.8763e-015 -4.77083e-015
rhumerus 25.8215 3.81288 -43.3781
rradius 69.3837
rwrist 9.45768
rhand 6.39743 -21.5963
rfingers 7.12502
rthumb 31.7019 -48.8615
lclavicle 3.8763e-015 -4.77083e-015
lhumerus 25.5206 -1.5926 60.1925
lradius 74.7158
lwrist -23.4828
lhand 14.3846 16.1039
lfingers 7.12502
lthumb 39.2721 41.5454
rfemur -15.5699 -15.8273 8.01946
rtibia 63.1968
rfoot -33.1755 0.927985
rtoes -12.4805
lfemur -17.924 5.49298 -10.5899
ltibia 63.7951
lfoot -34.4872 -3.58578
ltoes -12.7556
38
root 1.45279 16.0745 -3.81274 -6.0808 3.97436 -0.163988
lowerback 4.36026 -0.607319 -2.91618
upperback 0.331257 -0.915492 1.66475
thorax -2.03128 -0.425276 3.4082
lowerneck -19.1432 -1.88004 -2.46858
upperneck 23.2434 -1.98658 0.409853
head 10.6769 -1.07895 0.268169
rclavicle 9.61621e-015 -4.37326e-015
rhumerus 25.8363 3.81075 -43.3747
rradius 69.3811
rwrist 9.45776
rhand 6.44096 -21.6015
rfingers 7.12502
rthumb 31.7434 -48.8586
lclavicle 9.61621e-015 -4.37326e-015
lhumerus 25.5122 -1.58889 60.1744
lradius 74.7325
lwrist -23.4495
lhand 14.3471 16.1624
lfingers 7.12502
lthumb 39.2368 41.6142
rfemur -15.5712 -15.8196 8.05472
rtibia 63.1986
rfoot -33.1727 0.93406
rtoes -12.4463
lfemur -17.9208 5.49946 -10.5543
ltibia 63.7985
lfoot -34.494 -3.58737
ltoes -12.7355
39
root 1.45259 16.0748 -3.81062 -6.07569 3.98363 -0.142783
lowerback 4.3463 -0.608889 -2.93594
upperback 0.323173 -0.918447 1.65511
thorax -2.03139 -0.426496 3.4094
lowerneck -19.086 -1.87737 -2.47294
upperneck 23.2242 -1.98462 0.415667
head 10.659 -1.07783 0.271812
rclavicle 9.26834e-015 4.37326e-015
rhumerus 25.8141 3.82925 -43.372
rradius 69.3845
rwrist 9.45819
rhand 6.44599 -21.6014
rfingers 7.12502
rthumb 31.7482 -48.8575
lclavicle 9.26834e-015 4.37326e-015
lhumerus 25.4937 -1.61345 60.1676
lradius 74.7412
lwrist -23.4529
lhand 14.381 16.1505
lfingers 7.12502
lthumb 39.2687 41.5931
rfemur -15.562 -15.8333 8.02415
rtibia 63.1976
rfoot -33.1797 0.948339
rtoes -12.4422
lfemur -17.9121 5.48666 -10.5799
ltibia 63.7906
lfoot -34.4932 -3.58982
ltoes -12.7344
